<?xml version="1.0" standalone="no"?>
<!DOCTYPE svg PUBLIC "-//W3C//DTD SVG 20010904//EN"
 "http://www.w3.org/TR/2001/REC-SVG-20010904/DTD/svg10.dtd">
<svg version="1.0" xmlns="http://www.w3.org/2000/svg"
 width="500.000000pt" height="500.000000pt" viewBox="0 0 500.000000 500.000000"
 preserveAspectRatio="xMidYMid meet">
<metadata>
Created by potrace 1.14, written by Peter Selinger 2001-2017
</metadata>
<g transform="translate(0.000000,500.000000) scale(0.100000,-0.100000)"
fill="#000000" stroke="none">
<path d="M1825 3681 c-213 -61 -380 -233 -435 -447 -51 -198 0 -403 162 -656
l50 -78 46 0 c26 0 63 4 82 9 19 5 48 12 63 15 16 4 36 20 47 39 18 29 20 51
20 225 0 257 -13 242 215 242 253 0 259 -6 262 -259 2 -179 10 -216 52 -233
14 -6 108 -14 208 -17 l183 -6 27 -28 28 -27 3 -198 c4 -216 0 -249 -27 -284
-19 -22 -25 -23 -220 -28 -198 -5 -201 -5 -225 -30 -20 -20 -25 -36 -27 -87
-3 -71 -11 -61 150 -180 64 -48 76 -54 95 -44 27 15 255 192 366 285 122 102
425 406 504 506 141 178 242 353 288 500 34 110 32 263 -5 377 -64 194 -236
355 -437 408 -73 19 -226 19 -304 -1 -168 -43 -325 -170 -399 -321 -12 -24
-23 -43 -26 -43 -4 0 -24 32 -46 71 -76 136 -230 254 -382 293 -81 21 -240 20
-318 -3z"/>
</g>
</svg>
